<mxfile host="Electron" modified="2024-03-22T14:26:16.505Z" agent="Mozilla/5.0 (Windows NT 10.0; Win64; x64) AppleWebKit/537.36 (KHTML, like Gecko) draw.io/24.0.4 Chrome/120.0.6099.109 Electron/28.1.0 Safari/537.36" etag="LXEIf951heIzQdk_NRb1" version="24.0.4" type="device">
  <diagram name="Pagina-1" id="H7Lq8vrZ_PMQZZWuejiv">
    <mxGraphModel dx="267" dy="1550" grid="1" gridSize="10" guides="1" tooltips="1" connect="1" arrows="1" fold="1" page="1" pageScale="1" pageWidth="827" pageHeight="1169" math="0" shadow="0">
      <root>
        <mxCell id="0" />
        <mxCell id="1" parent="0" />
        <mxCell id="daDMwIqflgaj9xrDy1aA-6" style="edgeStyle=orthogonalEdgeStyle;rounded=0;orthogonalLoop=1;jettySize=auto;html=1;exitX=1;exitY=0.5;exitDx=0;exitDy=0;entryX=0;entryY=0.5;entryDx=0;entryDy=0;endArrow=doubleBlock;endFill=1;" parent="1" source="daDMwIqflgaj9xrDy1aA-1" target="daDMwIqflgaj9xrDy1aA-4" edge="1">
          <mxGeometry relative="1" as="geometry" />
        </mxCell>
        <mxCell id="daDMwIqflgaj9xrDy1aA-8" style="edgeStyle=orthogonalEdgeStyle;rounded=0;orthogonalLoop=1;jettySize=auto;html=1;exitX=0.5;exitY=1;exitDx=0;exitDy=0;entryX=0.5;entryY=0;entryDx=0;entryDy=0;endArrow=doubleBlock;endFill=1;" parent="1" source="daDMwIqflgaj9xrDy1aA-1" target="daDMwIqflgaj9xrDy1aA-5" edge="1">
          <mxGeometry relative="1" as="geometry" />
        </mxCell>
        <mxCell id="daDMwIqflgaj9xrDy1aA-22" style="edgeStyle=orthogonalEdgeStyle;rounded=0;orthogonalLoop=1;jettySize=auto;html=1;exitX=0.25;exitY=0;exitDx=0;exitDy=0;entryX=0;entryY=0.5;entryDx=0;entryDy=0;" parent="1" source="daDMwIqflgaj9xrDy1aA-1" target="daDMwIqflgaj9xrDy1aA-10" edge="1">
          <mxGeometry relative="1" as="geometry" />
        </mxCell>
        <mxCell id="daDMwIqflgaj9xrDy1aA-23" style="edgeStyle=orthogonalEdgeStyle;rounded=0;orthogonalLoop=1;jettySize=auto;html=1;exitX=0.25;exitY=0;exitDx=0;exitDy=0;entryX=0;entryY=0.5;entryDx=0;entryDy=0;" parent="1" source="daDMwIqflgaj9xrDy1aA-1" target="daDMwIqflgaj9xrDy1aA-12" edge="1">
          <mxGeometry relative="1" as="geometry" />
        </mxCell>
        <mxCell id="daDMwIqflgaj9xrDy1aA-24" style="edgeStyle=orthogonalEdgeStyle;rounded=0;orthogonalLoop=1;jettySize=auto;html=1;exitX=0.25;exitY=0;exitDx=0;exitDy=0;entryX=0;entryY=0.5;entryDx=0;entryDy=0;" parent="1" source="daDMwIqflgaj9xrDy1aA-1" target="daDMwIqflgaj9xrDy1aA-14" edge="1">
          <mxGeometry relative="1" as="geometry" />
        </mxCell>
        <mxCell id="daDMwIqflgaj9xrDy1aA-25" style="edgeStyle=orthogonalEdgeStyle;rounded=0;orthogonalLoop=1;jettySize=auto;html=1;exitX=0.25;exitY=0;exitDx=0;exitDy=0;entryX=0;entryY=0.5;entryDx=0;entryDy=0;" parent="1" source="daDMwIqflgaj9xrDy1aA-1" target="daDMwIqflgaj9xrDy1aA-16" edge="1">
          <mxGeometry relative="1" as="geometry" />
        </mxCell>
        <mxCell id="daDMwIqflgaj9xrDy1aA-26" style="edgeStyle=orthogonalEdgeStyle;rounded=0;orthogonalLoop=1;jettySize=auto;html=1;exitX=0.25;exitY=0;exitDx=0;exitDy=0;entryX=0;entryY=0.5;entryDx=0;entryDy=0;" parent="1" source="daDMwIqflgaj9xrDy1aA-1" target="daDMwIqflgaj9xrDy1aA-18" edge="1">
          <mxGeometry relative="1" as="geometry" />
        </mxCell>
        <mxCell id="WNW3OjP5dPeycrA37EVl-19" style="edgeStyle=orthogonalEdgeStyle;rounded=0;orthogonalLoop=1;jettySize=auto;html=1;exitX=0.25;exitY=0;exitDx=0;exitDy=0;entryX=0;entryY=0.5;entryDx=0;entryDy=0;" edge="1" parent="1" source="daDMwIqflgaj9xrDy1aA-1" target="WNW3OjP5dPeycrA37EVl-17">
          <mxGeometry relative="1" as="geometry" />
        </mxCell>
        <mxCell id="daDMwIqflgaj9xrDy1aA-1" value="Evento" style="rounded=0;whiteSpace=wrap;html=1;" parent="1" vertex="1">
          <mxGeometry x="280" y="150" width="120" height="60" as="geometry" />
        </mxCell>
        <mxCell id="daDMwIqflgaj9xrDy1aA-7" style="edgeStyle=orthogonalEdgeStyle;rounded=0;orthogonalLoop=1;jettySize=auto;html=1;exitX=0;exitY=0.5;exitDx=0;exitDy=0;entryX=1;entryY=0.5;entryDx=0;entryDy=0;" parent="1" source="daDMwIqflgaj9xrDy1aA-2" target="daDMwIqflgaj9xrDy1aA-4" edge="1">
          <mxGeometry relative="1" as="geometry" />
        </mxCell>
        <mxCell id="daDMwIqflgaj9xrDy1aA-37" style="edgeStyle=orthogonalEdgeStyle;rounded=0;orthogonalLoop=1;jettySize=auto;html=1;exitX=0.25;exitY=0;exitDx=0;exitDy=0;entryX=0;entryY=0.5;entryDx=0;entryDy=0;" parent="1" source="daDMwIqflgaj9xrDy1aA-2" target="daDMwIqflgaj9xrDy1aA-27" edge="1">
          <mxGeometry relative="1" as="geometry" />
        </mxCell>
        <mxCell id="daDMwIqflgaj9xrDy1aA-38" style="edgeStyle=orthogonalEdgeStyle;rounded=0;orthogonalLoop=1;jettySize=auto;html=1;exitX=0.25;exitY=0;exitDx=0;exitDy=0;entryX=0;entryY=0.5;entryDx=0;entryDy=0;" parent="1" source="daDMwIqflgaj9xrDy1aA-2" target="daDMwIqflgaj9xrDy1aA-29" edge="1">
          <mxGeometry relative="1" as="geometry" />
        </mxCell>
        <mxCell id="daDMwIqflgaj9xrDy1aA-39" style="edgeStyle=orthogonalEdgeStyle;rounded=0;orthogonalLoop=1;jettySize=auto;html=1;exitX=0.25;exitY=0;exitDx=0;exitDy=0;entryX=0;entryY=0.5;entryDx=0;entryDy=0;" parent="1" source="daDMwIqflgaj9xrDy1aA-2" target="daDMwIqflgaj9xrDy1aA-31" edge="1">
          <mxGeometry relative="1" as="geometry" />
        </mxCell>
        <mxCell id="daDMwIqflgaj9xrDy1aA-40" style="edgeStyle=orthogonalEdgeStyle;rounded=0;orthogonalLoop=1;jettySize=auto;html=1;exitX=0.25;exitY=0;exitDx=0;exitDy=0;entryX=0;entryY=0.5;entryDx=0;entryDy=0;" parent="1" source="daDMwIqflgaj9xrDy1aA-2" target="daDMwIqflgaj9xrDy1aA-33" edge="1">
          <mxGeometry relative="1" as="geometry" />
        </mxCell>
        <mxCell id="daDMwIqflgaj9xrDy1aA-2" value="Partecipante" style="rounded=0;whiteSpace=wrap;html=1;" parent="1" vertex="1">
          <mxGeometry x="640" y="150" width="150" height="60" as="geometry" />
        </mxCell>
        <mxCell id="daDMwIqflgaj9xrDy1aA-9" style="edgeStyle=orthogonalEdgeStyle;rounded=0;orthogonalLoop=1;jettySize=auto;html=1;exitX=0.5;exitY=0;exitDx=0;exitDy=0;entryX=0.5;entryY=1;entryDx=0;entryDy=0;" parent="1" source="daDMwIqflgaj9xrDy1aA-3" target="daDMwIqflgaj9xrDy1aA-5" edge="1">
          <mxGeometry relative="1" as="geometry" />
        </mxCell>
        <mxCell id="daDMwIqflgaj9xrDy1aA-53" style="edgeStyle=orthogonalEdgeStyle;rounded=0;orthogonalLoop=1;jettySize=auto;html=1;exitX=0.25;exitY=1;exitDx=0;exitDy=0;entryX=0;entryY=0.5;entryDx=0;entryDy=0;" parent="1" source="daDMwIqflgaj9xrDy1aA-3" target="daDMwIqflgaj9xrDy1aA-49" edge="1">
          <mxGeometry relative="1" as="geometry" />
        </mxCell>
        <mxCell id="daDMwIqflgaj9xrDy1aA-54" style="edgeStyle=orthogonalEdgeStyle;rounded=0;orthogonalLoop=1;jettySize=auto;html=1;exitX=0.25;exitY=1;exitDx=0;exitDy=0;entryX=0;entryY=0.5;entryDx=0;entryDy=0;" parent="1" source="daDMwIqflgaj9xrDy1aA-3" target="daDMwIqflgaj9xrDy1aA-47" edge="1">
          <mxGeometry relative="1" as="geometry" />
        </mxCell>
        <mxCell id="daDMwIqflgaj9xrDy1aA-55" style="edgeStyle=orthogonalEdgeStyle;rounded=0;orthogonalLoop=1;jettySize=auto;html=1;exitX=0.25;exitY=1;exitDx=0;exitDy=0;entryX=0;entryY=0.5;entryDx=0;entryDy=0;" parent="1" source="daDMwIqflgaj9xrDy1aA-3" target="daDMwIqflgaj9xrDy1aA-45" edge="1">
          <mxGeometry relative="1" as="geometry" />
        </mxCell>
        <mxCell id="daDMwIqflgaj9xrDy1aA-57" style="edgeStyle=orthogonalEdgeStyle;rounded=0;orthogonalLoop=1;jettySize=auto;html=1;exitX=0.25;exitY=1;exitDx=0;exitDy=0;entryX=0;entryY=0.5;entryDx=0;entryDy=0;" parent="1" source="daDMwIqflgaj9xrDy1aA-3" target="daDMwIqflgaj9xrDy1aA-41" edge="1">
          <mxGeometry relative="1" as="geometry" />
        </mxCell>
        <mxCell id="daDMwIqflgaj9xrDy1aA-58" style="edgeStyle=orthogonalEdgeStyle;rounded=0;orthogonalLoop=1;jettySize=auto;html=1;exitX=0.25;exitY=1;exitDx=0;exitDy=0;entryX=0;entryY=0.5;entryDx=0;entryDy=0;" parent="1" source="daDMwIqflgaj9xrDy1aA-3" target="daDMwIqflgaj9xrDy1aA-43" edge="1">
          <mxGeometry relative="1" as="geometry" />
        </mxCell>
        <mxCell id="daDMwIqflgaj9xrDy1aA-59" style="edgeStyle=orthogonalEdgeStyle;rounded=0;orthogonalLoop=1;jettySize=auto;html=1;exitX=0.25;exitY=1;exitDx=0;exitDy=0;entryX=0;entryY=0.5;entryDx=0;entryDy=0;" parent="1" source="daDMwIqflgaj9xrDy1aA-3" target="daDMwIqflgaj9xrDy1aA-51" edge="1">
          <mxGeometry relative="1" as="geometry" />
        </mxCell>
        <mxCell id="WNW3OjP5dPeycrA37EVl-24" style="edgeStyle=orthogonalEdgeStyle;rounded=0;orthogonalLoop=1;jettySize=auto;html=1;exitX=0.25;exitY=1;exitDx=0;exitDy=0;entryX=0;entryY=0.5;entryDx=0;entryDy=0;" edge="1" parent="1" source="daDMwIqflgaj9xrDy1aA-3" target="WNW3OjP5dPeycrA37EVl-22">
          <mxGeometry relative="1" as="geometry" />
        </mxCell>
        <mxCell id="daDMwIqflgaj9xrDy1aA-3" value="Risorsa" style="rounded=0;whiteSpace=wrap;html=1;" parent="1" vertex="1">
          <mxGeometry x="280" y="420" width="120" height="60" as="geometry" />
        </mxCell>
        <mxCell id="daDMwIqflgaj9xrDy1aA-4" value="ospita" style="rhombus;whiteSpace=wrap;html=1;" parent="1" vertex="1">
          <mxGeometry x="480" y="140" width="80" height="80" as="geometry" />
        </mxCell>
        <mxCell id="daDMwIqflgaj9xrDy1aA-5" value="possiede" style="rhombus;whiteSpace=wrap;html=1;" parent="1" vertex="1">
          <mxGeometry x="300" y="280" width="80" height="80" as="geometry" />
        </mxCell>
        <mxCell id="daDMwIqflgaj9xrDy1aA-10" value="" style="ellipse;whiteSpace=wrap;html=1;aspect=fixed;" parent="1" vertex="1">
          <mxGeometry x="356" y="90" width="30" height="30" as="geometry" />
        </mxCell>
        <mxCell id="daDMwIqflgaj9xrDy1aA-11" value="Nome" style="text;html=1;align=center;verticalAlign=middle;whiteSpace=wrap;rounded=0;" parent="1" vertex="1">
          <mxGeometry x="386" y="90" width="60" height="30" as="geometry" />
        </mxCell>
        <mxCell id="daDMwIqflgaj9xrDy1aA-12" value="" style="ellipse;whiteSpace=wrap;html=1;aspect=fixed;" parent="1" vertex="1">
          <mxGeometry x="356" y="50" width="30" height="30" as="geometry" />
        </mxCell>
        <mxCell id="daDMwIqflgaj9xrDy1aA-13" value="Descrizione" style="text;html=1;align=center;verticalAlign=middle;whiteSpace=wrap;rounded=0;" parent="1" vertex="1">
          <mxGeometry x="386" y="50" width="80" height="30" as="geometry" />
        </mxCell>
        <mxCell id="daDMwIqflgaj9xrDy1aA-14" value="" style="ellipse;whiteSpace=wrap;html=1;aspect=fixed;" parent="1" vertex="1">
          <mxGeometry x="356" y="10" width="30" height="30" as="geometry" />
        </mxCell>
        <mxCell id="daDMwIqflgaj9xrDy1aA-15" value="Data" style="text;html=1;align=center;verticalAlign=middle;whiteSpace=wrap;rounded=0;" parent="1" vertex="1">
          <mxGeometry x="386" y="10" width="50" height="30" as="geometry" />
        </mxCell>
        <mxCell id="daDMwIqflgaj9xrDy1aA-16" value="" style="ellipse;whiteSpace=wrap;html=1;aspect=fixed;" parent="1" vertex="1">
          <mxGeometry x="356" y="-30" width="30" height="30" as="geometry" />
        </mxCell>
        <mxCell id="daDMwIqflgaj9xrDy1aA-17" value="Luogo" style="text;html=1;align=center;verticalAlign=middle;whiteSpace=wrap;rounded=0;" parent="1" vertex="1">
          <mxGeometry x="386" y="-30" width="60" height="30" as="geometry" />
        </mxCell>
        <mxCell id="daDMwIqflgaj9xrDy1aA-18" value="" style="ellipse;whiteSpace=wrap;html=1;aspect=fixed;" parent="1" vertex="1">
          <mxGeometry x="356" y="-70" width="30" height="30" as="geometry" />
        </mxCell>
        <mxCell id="daDMwIqflgaj9xrDy1aA-19" value="Capacita" style="text;html=1;align=center;verticalAlign=middle;whiteSpace=wrap;rounded=0;" parent="1" vertex="1">
          <mxGeometry x="386" y="-70" width="60" height="30" as="geometry" />
        </mxCell>
        <mxCell id="daDMwIqflgaj9xrDy1aA-20" value="" style="endArrow=none;html=1;rounded=0;" parent="1" edge="1">
          <mxGeometry width="50" height="50" relative="1" as="geometry">
            <mxPoint x="430" y="200" as="sourcePoint" />
            <mxPoint x="430" y="160" as="targetPoint" />
          </mxGeometry>
        </mxCell>
        <mxCell id="daDMwIqflgaj9xrDy1aA-21" value="" style="endArrow=none;html=1;rounded=0;" parent="1" edge="1">
          <mxGeometry width="50" height="50" relative="1" as="geometry">
            <mxPoint x="320" y="230" as="sourcePoint" />
            <mxPoint x="360" y="230" as="targetPoint" />
          </mxGeometry>
        </mxCell>
        <mxCell id="daDMwIqflgaj9xrDy1aA-27" value="" style="ellipse;whiteSpace=wrap;html=1;aspect=fixed;" parent="1" vertex="1">
          <mxGeometry x="717" y="100" width="30" height="30" as="geometry" />
        </mxCell>
        <mxCell id="daDMwIqflgaj9xrDy1aA-28" value="Nome" style="text;html=1;align=center;verticalAlign=middle;whiteSpace=wrap;rounded=0;" parent="1" vertex="1">
          <mxGeometry x="747" y="100" width="60" height="30" as="geometry" />
        </mxCell>
        <mxCell id="daDMwIqflgaj9xrDy1aA-29" value="" style="ellipse;whiteSpace=wrap;html=1;aspect=fixed;" parent="1" vertex="1">
          <mxGeometry x="717" y="60" width="30" height="30" as="geometry" />
        </mxCell>
        <mxCell id="daDMwIqflgaj9xrDy1aA-30" value="Cognome" style="text;html=1;align=center;verticalAlign=middle;whiteSpace=wrap;rounded=0;" parent="1" vertex="1">
          <mxGeometry x="747" y="60" width="80" height="30" as="geometry" />
        </mxCell>
        <mxCell id="daDMwIqflgaj9xrDy1aA-31" value="" style="ellipse;whiteSpace=wrap;html=1;aspect=fixed;" parent="1" vertex="1">
          <mxGeometry x="717" y="20" width="30" height="30" as="geometry" />
        </mxCell>
        <mxCell id="daDMwIqflgaj9xrDy1aA-32" value="Telefono" style="text;html=1;align=center;verticalAlign=middle;whiteSpace=wrap;rounded=0;" parent="1" vertex="1">
          <mxGeometry x="747" y="20" width="63" height="30" as="geometry" />
        </mxCell>
        <mxCell id="daDMwIqflgaj9xrDy1aA-33" value="" style="ellipse;whiteSpace=wrap;html=1;aspect=fixed;" parent="1" vertex="1">
          <mxGeometry x="717" y="-20" width="30" height="30" as="geometry" />
        </mxCell>
        <mxCell id="daDMwIqflgaj9xrDy1aA-34" value="Email" style="text;html=1;align=center;verticalAlign=middle;whiteSpace=wrap;rounded=0;" parent="1" vertex="1">
          <mxGeometry x="747" y="-20" width="60" height="30" as="geometry" />
        </mxCell>
        <mxCell id="daDMwIqflgaj9xrDy1aA-41" value="" style="ellipse;whiteSpace=wrap;html=1;aspect=fixed;" parent="1" vertex="1">
          <mxGeometry x="350" y="650" width="30" height="30" as="geometry" />
        </mxCell>
        <mxCell id="daDMwIqflgaj9xrDy1aA-42" value="Costo" style="text;html=1;align=center;verticalAlign=middle;whiteSpace=wrap;rounded=0;" parent="1" vertex="1">
          <mxGeometry x="380" y="650" width="60" height="30" as="geometry" />
        </mxCell>
        <mxCell id="daDMwIqflgaj9xrDy1aA-43" value="" style="ellipse;whiteSpace=wrap;html=1;aspect=fixed;" parent="1" vertex="1">
          <mxGeometry x="350" y="610" width="30" height="30" as="geometry" />
        </mxCell>
        <mxCell id="daDMwIqflgaj9xrDy1aA-44" value="Quantita" style="text;html=1;align=center;verticalAlign=middle;whiteSpace=wrap;rounded=0;" parent="1" vertex="1">
          <mxGeometry x="380" y="610" width="60" height="30" as="geometry" />
        </mxCell>
        <mxCell id="daDMwIqflgaj9xrDy1aA-45" value="" style="ellipse;whiteSpace=wrap;html=1;aspect=fixed;" parent="1" vertex="1">
          <mxGeometry x="350" y="570" width="30" height="30" as="geometry" />
        </mxCell>
        <mxCell id="daDMwIqflgaj9xrDy1aA-46" value="Bevande" style="text;html=1;align=center;verticalAlign=middle;whiteSpace=wrap;rounded=0;" parent="1" vertex="1">
          <mxGeometry x="380" y="570" width="70" height="30" as="geometry" />
        </mxCell>
        <mxCell id="daDMwIqflgaj9xrDy1aA-47" value="" style="ellipse;whiteSpace=wrap;html=1;aspect=fixed;" parent="1" vertex="1">
          <mxGeometry x="350" y="530" width="30" height="30" as="geometry" />
        </mxCell>
        <mxCell id="daDMwIqflgaj9xrDy1aA-48" value="Cibo" style="text;html=1;align=center;verticalAlign=middle;whiteSpace=wrap;rounded=0;" parent="1" vertex="1">
          <mxGeometry x="380" y="530" width="60" height="30" as="geometry" />
        </mxCell>
        <mxCell id="daDMwIqflgaj9xrDy1aA-49" value="" style="ellipse;whiteSpace=wrap;html=1;aspect=fixed;" parent="1" vertex="1">
          <mxGeometry x="350" y="490" width="30" height="30" as="geometry" />
        </mxCell>
        <mxCell id="daDMwIqflgaj9xrDy1aA-50" value="Attrezzatura" style="text;html=1;align=center;verticalAlign=middle;whiteSpace=wrap;rounded=0;" parent="1" vertex="1">
          <mxGeometry x="380" y="490" width="80" height="30" as="geometry" />
        </mxCell>
        <mxCell id="daDMwIqflgaj9xrDy1aA-51" value="" style="ellipse;whiteSpace=wrap;html=1;aspect=fixed;" parent="1" vertex="1">
          <mxGeometry x="350" y="690" width="30" height="30" as="geometry" />
        </mxCell>
        <mxCell id="daDMwIqflgaj9xrDy1aA-52" value="fornitore" style="text;html=1;align=center;verticalAlign=middle;whiteSpace=wrap;rounded=0;" parent="1" vertex="1">
          <mxGeometry x="380" y="690" width="60" height="30" as="geometry" />
        </mxCell>
        <mxCell id="daDMwIqflgaj9xrDy1aA-60" value="" style="endArrow=none;html=1;rounded=0;" parent="1" edge="1">
          <mxGeometry width="50" height="50" relative="1" as="geometry">
            <mxPoint x="690" y="130" as="sourcePoint" />
            <mxPoint x="690" y="100" as="targetPoint" />
          </mxGeometry>
        </mxCell>
        <mxCell id="WNW3OjP5dPeycrA37EVl-17" value="" style="ellipse;whiteSpace=wrap;html=1;aspect=fixed;fillColor=#000000;" vertex="1" parent="1">
          <mxGeometry x="356" y="-110" width="30" height="30" as="geometry" />
        </mxCell>
        <mxCell id="WNW3OjP5dPeycrA37EVl-18" value="EventoID" style="text;html=1;align=center;verticalAlign=middle;whiteSpace=wrap;rounded=0;" vertex="1" parent="1">
          <mxGeometry x="386" y="-110" width="74" height="30" as="geometry" />
        </mxCell>
        <mxCell id="WNW3OjP5dPeycrA37EVl-20" value="" style="ellipse;whiteSpace=wrap;html=1;aspect=fixed;fillColor=#000000;" vertex="1" parent="1">
          <mxGeometry x="717" y="-60" width="30" height="30" as="geometry" />
        </mxCell>
        <mxCell id="WNW3OjP5dPeycrA37EVl-21" value="PartecipanteID" style="text;html=1;align=center;verticalAlign=middle;whiteSpace=wrap;rounded=0;" vertex="1" parent="1">
          <mxGeometry x="747" y="-60" width="113" height="30" as="geometry" />
        </mxCell>
        <mxCell id="WNW3OjP5dPeycrA37EVl-22" value="" style="ellipse;whiteSpace=wrap;html=1;aspect=fixed;" vertex="1" parent="1">
          <mxGeometry x="350" y="730" width="30" height="30" as="geometry" />
        </mxCell>
        <mxCell id="WNW3OjP5dPeycrA37EVl-23" value="RisorsaID" style="text;html=1;align=center;verticalAlign=middle;whiteSpace=wrap;rounded=0;" vertex="1" parent="1">
          <mxGeometry x="380" y="730" width="60" height="30" as="geometry" />
        </mxCell>
        <mxCell id="WNW3OjP5dPeycrA37EVl-25" value="" style="endArrow=none;html=1;rounded=0;" edge="1" parent="1">
          <mxGeometry width="50" height="50" relative="1" as="geometry">
            <mxPoint x="330" y="760" as="sourcePoint" />
            <mxPoint x="330" y="730" as="targetPoint" />
          </mxGeometry>
        </mxCell>
      </root>
    </mxGraphModel>
  </diagram>
</mxfile>
